PathFileType	4	(X/Y/Z)	C:\Users\italobelli\Desktop\GitHub\PTbot_officialCBL\Personal_Results\ABD03_noisy2.trc
DataRate	CameraRate	NumFrames	NumMarkers	Units	OrigDataRate	OrigDataStartFrame	OrigNumFrames
106.533333	106.533333	51	9	m	106.533333	401	800
Frame#	Time		gu		centelbow		EpL		centpxt8		centijc7		ij		ts		aa		ai
			X1	Y1	Z1	X2	Y2	Z2	X3	Y3	Z3	X4	Y4	Z4	X5	Y5	Z5	X6	Y6	Z6	X7	Y7	Z7	X8	Y8	Z8	X9	Y9	Z9

401	3.7547	-0.11081	0.065137	0.098329	-0.045278	0.28746	0.19433	-0.065447	0.29833	0.17204	-0.046816	-0.15316	-0.008669	-0.046816	0.031938	-0.008669	0	0	0	-0.14465	-0.019725	0.048171	-0.15349	0.089208	0.095813	-0.14397	-0.060211	0.15415
402	3.7641	-0.11097	0.065172	0.09828	-0.045848	0.28772	0.19428	-0.065986	0.29858	0.17195	-0.046816	-0.15316	-0.008669	-0.046816	0.031938	-0.008669	0	0	0	-0.14469	-0.019724	0.048072	-0.15364	0.089207	0.095685	-0.14406	-0.060193	0.15405
403	3.7735	-0.11113	0.065207	0.098231	-0.046441	0.28799	0.19424	-0.066549	0.29882	0.17188	-0.046816	-0.15316	-0.008669	-0.046816	0.031938	-0.008669	0	0	0	-0.14473	-0.019723	0.047971	-0.15381	0.089206	0.095557	-0.14415	-0.060176	0.15395
404	3.7829	-0.11129	0.065243	0.098183	-0.047056	0.28826	0.19421	-0.067133	0.29907	0.17183	-0.046816	-0.15316	-0.008669	-0.046816	0.031938	-0.008669	0	0	0	-0.14476	-0.019722	0.047869	-0.15397	0.089203	0.095428	-0.14424	-0.060162	0.15385
405	3.7922	-0.11145	0.06528	0.098135	-0.047693	0.28852	0.19419	-0.067738	0.29932	0.17179	-0.046816	-0.15316	-0.008669	-0.046816	0.031938	-0.008669	0	0	0	-0.14479	-0.019721	0.047764	-0.15413	0.089199	0.0953	-0.14434	-0.06015	0.15374
406	3.8016	-0.11161	0.065317	0.098087	-0.048351	0.28879	0.1942	-0.068363	0.29956	0.17176	-0.046816	-0.15316	-0.008669	-0.046816	0.031938	-0.008669	0	0	0	-0.14482	-0.01972	0.047658	-0.1543	0.089194	0.095171	-0.14443	-0.060141	0.15363
407	3.811	-0.11177	0.065354	0.09804	-0.049028	0.28905	0.19421	-0.069009	0.2998	0.17174	-0.046816	-0.15316	-0.008669	-0.046816	0.031938	-0.008669	0	0	0	-0.14484	-0.019719	0.047551	-0.15446	0.089189	0.095043	-0.14453	-0.060133	0.15353
408	3.8204	-0.11194	0.065391	0.097994	-0.049725	0.28931	0.19425	-0.069673	0.30004	0.17174	-0.046816	-0.15316	-0.008669	-0.046816	0.031938	-0.008669	0	0	0	-0.14486	-0.019718	0.047442	-0.15463	0.089182	0.094915	-0.14462	-0.060128	0.15341
409	3.8298	-0.1121	0.065429	0.097948	-0.050441	0.28957	0.1943	-0.070355	0.30028	0.17175	-0.046816	-0.15316	-0.008669	-0.046816	0.031938	-0.008669	0	0	0	-0.14488	-0.019716	0.047332	-0.1548	0.089175	0.094788	-0.14471	-0.060126	0.1533
410	3.8392	-0.11227	0.065467	0.097903	-0.051174	0.28983	0.19436	-0.071055	0.30052	0.17177	-0.046816	-0.15316	-0.008669	-0.046816	0.031938	-0.008669	0	0	0	-0.14489	-0.019715	0.047221	-0.15496	0.089167	0.094662	-0.14481	-0.060126	0.15319
411	3.8486	-0.11243	0.065505	0.097858	-0.051925	0.29008	0.19444	-0.071772	0.30076	0.17181	-0.046816	-0.15316	-0.008669	-0.046816	0.031938	-0.008669	0	0	0	-0.14491	-0.019714	0.047109	-0.15513	0.089157	0.094538	-0.1449	-0.060128	0.15307
412	3.8579	-0.11259	0.065543	0.097814	-0.052692	0.29033	0.19453	-0.072504	0.30099	0.17186	-0.046816	-0.15316	-0.008669	-0.046816	0.031938	-0.008669	0	0	0	-0.14491	-0.019713	0.046997	-0.1553	0.089147	0.094414	-0.14499	-0.060134	0.15296
413	3.8673	-0.11275	0.065581	0.097771	-0.053474	0.29057	0.19465	-0.073252	0.30122	0.17193	-0.046816	-0.15316	-0.008669	-0.046816	0.031938	-0.008669	0	0	0	-0.14492	-0.019712	0.046883	-0.15546	0.089136	0.094293	-0.14508	-0.060142	0.15284
414	3.8767	-0.11292	0.06562	0.097729	-0.054272	0.29082	0.19478	-0.074015	0.30144	0.17201	-0.046816	-0.15316	-0.008669	-0.046816	0.031938	-0.008669	0	0	0	-0.14492	-0.019711	0.046769	-0.15563	0.089124	0.094173	-0.14517	-0.060152	0.15272
415	3.8861	-0.11308	0.065657	0.097687	-0.055083	0.29105	0.19492	-0.074791	0.30166	0.1721	-0.046816	-0.15316	-0.008669	-0.046816	0.031938	-0.008669	0	0	0	-0.14492	-0.019709	0.046654	-0.15579	0.089112	0.094055	-0.14526	-0.060166	0.1526
416	3.8955	-0.11323	0.065695	0.097646	-0.055908	0.29129	0.19508	-0.075581	0.30188	0.17221	-0.046816	-0.15316	-0.008669	-0.046816	0.031938	-0.008669	0	0	0	-0.14491	-0.019708	0.046539	-0.15595	0.089098	0.093939	-0.14535	-0.060182	0.15248
417	3.9049	-0.11339	0.065733	0.097606	-0.056745	0.29152	0.19526	-0.076383	0.30209	0.17233	-0.046816	-0.15316	-0.008669	-0.046816	0.031938	-0.008669	0	0	0	-0.1449	-0.019707	0.046424	-0.15611	0.089083	0.093826	-0.14543	-0.060202	0.15236
418	3.9143	-0.11354	0.06577	0.097566	-0.057594	0.29174	0.19545	-0.077197	0.3023	0.17247	-0.046816	-0.15316	-0.008669	-0.046816	0.031938	-0.008669	0	0	0	-0.14489	-0.019706	0.046308	-0.15627	0.089068	0.093715	-0.14552	-0.060224	0.15224
419	3.9237	-0.11369	0.065807	0.097528	-0.058455	0.29196	0.19567	-0.078022	0.3025	0.17263	-0.046816	-0.15316	-0.008669	-0.046816	0.031938	-0.008669	0	0	0	-0.14487	-0.019705	0.046193	-0.15643	0.089051	0.093607	-0.1456	-0.06025	0.15212
420	3.933	-0.11384	0.065843	0.09749	-0.059325	0.29217	0.1959	-0.078858	0.3027	0.17279	-0.046816	-0.15316	-0.008669	-0.046816	0.031938	-0.008669	0	0	0	-0.14485	-0.019704	0.046078	-0.15658	0.089034	0.093503	-0.14568	-0.060279	0.152
421	3.9424	-0.11399	0.065879	0.097454	-0.060206	0.29237	0.19614	-0.079703	0.30289	0.17298	-0.046816	-0.15316	-0.008669	-0.046816	0.031938	-0.008669	0	0	0	-0.14482	-0.019703	0.045962	-0.15674	0.089015	0.093401	-0.14576	-0.060311	0.15188
422	3.9518	-0.11413	0.065914	0.097418	-0.061095	0.29257	0.19641	-0.080556	0.30308	0.17317	-0.046816	-0.15316	-0.008669	-0.046816	0.031938	-0.008669	0	0	0	-0.14479	-0.019702	0.045848	-0.15688	0.088996	0.093303	-0.14584	-0.060346	0.15176
423	3.9612	-0.11427	0.065949	0.097383	-0.061992	0.29276	0.19669	-0.081418	0.30326	0.17339	-0.046816	-0.15316	-0.008669	-0.046816	0.031938	-0.008669	0	0	0	-0.14475	-0.019701	0.045733	-0.15703	0.088976	0.093209	-0.14591	-0.060384	0.15164
424	3.9706	-0.1144	0.065983	0.097349	-0.062897	0.29295	0.19699	-0.082288	0.30344	0.17361	-0.046816	-0.15316	-0.008669	-0.046816	0.031938	-0.008669	0	0	0	-0.14471	-0.0197	0.04562	-0.15717	0.088955	0.093119	-0.14598	-0.060426	0.15152
425	3.98	-0.11454	0.066017	0.097316	-0.063808	0.29312	0.19731	-0.083164	0.30361	0.17386	-0.046816	-0.15316	-0.008669	-0.046816	0.031938	-0.008669	0	0	0	-0.14467	-0.019699	0.045507	-0.15731	0.088933	0.093033	-0.14605	-0.060472	0.1514
426	3.9894	-0.11466	0.066049	0.097285	-0.064725	0.29329	0.19765	-0.084046	0.30377	0.17412	-0.046816	-0.15316	-0.008669	-0.046816	0.031938	-0.008669	0	0	0	-0.14462	-0.019698	0.045395	-0.15744	0.08891	0.092951	-0.14612	-0.060521	0.15128
427	3.9987	-0.11478	0.066081	0.097254	-0.065648	0.29345	0.198	-0.084933	0.30392	0.17439	-0.046816	-0.15316	-0.008669	-0.046816	0.031938	-0.008669	0	0	0	-0.14457	-0.019697	0.045284	-0.15757	0.088886	0.092874	-0.14618	-0.060574	0.15117
428	4.0081	-0.1149	0.066112	0.097226	-0.066603	0.29359	0.19839	-0.085851	0.30405	0.1747	-0.046816	-0.15316	-0.008669	-0.046816	0.031938	-0.008669	0	0	0	-0.14451	-0.019696	0.045172	-0.1577	0.088858	0.092801	-0.14624	-0.060635	0.15105
429	4.0175	-0.11503	0.066145	0.097205	-0.067635	0.29368	0.19883	-0.08684	0.30415	0.17506	-0.046816	-0.15316	-0.008669	-0.046816	0.031938	-0.008669	0	0	0	-0.14443	-0.019695	0.045057	-0.15784	0.088821	0.09273	-0.1463	-0.060712	0.15092
430	4.0269	-0.11516	0.066179	0.097189	-0.068743	0.29373	0.19932	-0.087898	0.3042	0.17547	-0.046816	-0.15316	-0.008669	-0.046816	0.031938	-0.008669	0	0	0	-0.14434	-0.019694	0.044938	-0.15797	0.088775	0.092662	-0.14635	-0.060805	0.15078
431	4.0363	-0.11529	0.066213	0.09718	-0.069921	0.29373	0.19986	-0.089021	0.30421	0.17594	-0.046816	-0.15316	-0.008669	-0.046816	0.031938	-0.008669	0	0	0	-0.14423	-0.019692	0.044816	-0.15811	0.08872	0.092597	-0.1464	-0.060912	0.15063
432	4.0457	-0.11542	0.066249	0.097176	-0.071168	0.29369	0.20045	-0.090207	0.30418	0.17646	-0.046816	-0.15316	-0.008669	-0.046816	0.031938	-0.008669	0	0	0	-0.14412	-0.019691	0.044691	-0.15826	0.088656	0.092535	-0.14645	-0.061035	0.15047
433	4.0551	-0.11556	0.066285	0.097178	-0.072479	0.29362	0.20109	-0.091452	0.30412	0.17703	-0.046816	-0.15316	-0.008669	-0.046816	0.031938	-0.008669	0	0	0	-0.14398	-0.019689	0.044562	-0.15841	0.088584	0.092476	-0.14649	-0.061171	0.1503
434	4.0645	-0.1157	0.066322	0.097185	-0.073852	0.2935	0.20178	-0.092754	0.30402	0.17764	-0.046816	-0.15316	-0.008669	-0.046816	0.031938	-0.008669	0	0	0	-0.14384	-0.019686	0.04443	-0.15856	0.088503	0.092419	-0.14653	-0.061321	0.15012
435	4.0738	-0.11584	0.06636	0.097197	-0.075283	0.29334	0.20251	-0.09411	0.30388	0.17831	-0.046816	-0.15316	-0.008669	-0.046816	0.031938	-0.008669	0	0	0	-0.14369	-0.019684	0.044295	-0.15871	0.088415	0.092366	-0.14656	-0.061485	0.14994
436	4.0832	-0.11598	0.066399	0.097215	-0.076769	0.29314	0.20329	-0.095516	0.3037	0.17902	-0.046816	-0.15316	-0.008669	-0.046816	0.031938	-0.008669	0	0	0	-0.14352	-0.019681	0.044157	-0.15887	0.088319	0.092315	-0.1466	-0.061661	0.14974
437	4.0926	-0.11612	0.066438	0.097238	-0.078306	0.2929	0.20411	-0.09697	0.3035	0.17977	-0.046816	-0.15316	-0.008669	-0.046816	0.031938	-0.008669	0	0	0	-0.14334	-0.019678	0.044015	-0.15902	0.088216	0.092268	-0.14663	-0.061849	0.14954
438	4.102	-0.11627	0.066478	0.097266	-0.079891	0.29263	0.20497	-0.098468	0.30325	0.18057	-0.046816	-0.15316	-0.008669	-0.046816	0.031938	-0.008669	0	0	0	-0.14315	-0.019675	0.043871	-0.15918	0.088105	0.092223	-0.14665	-0.062049	0.14932
439	4.1114	-0.11642	0.066519	0.097298	-0.081522	0.29232	0.20587	-0.10001	0.30298	0.18141	-0.046816	-0.15316	-0.008669	-0.046816	0.031938	-0.008669	0	0	0	-0.14295	-0.019671	0.043724	-0.15935	0.087987	0.092181	-0.14667	-0.06226	0.1491
440	4.1208	-0.11657	0.06656	0.097335	-0.083193	0.29198	0.2068	-0.10159	0.30267	0.18229	-0.046816	-0.15316	-0.008669	-0.046816	0.031938	-0.008669	0	0	0	-0.14275	-0.019667	0.043574	-0.15951	0.087863	0.092142	-0.14669	-0.062482	0.14887
441	4.1302	-0.11672	0.066602	0.097377	-0.084903	0.2916	0.20778	-0.1032	0.30234	0.18322	-0.046816	-0.15316	-0.008669	-0.046816	0.031938	-0.008669	0	0	0	-0.14253	-0.019663	0.043421	-0.15967	0.087732	0.092107	-0.14671	-0.062714	0.14863
442	4.1395	-0.11687	0.066644	0.097422	-0.086648	0.2912	0.20879	-0.10485	0.30197	0.18418	-0.046816	-0.15316	-0.008669	-0.046816	0.031938	-0.008669	0	0	0	-0.1423	-0.019659	0.043265	-0.15984	0.087594	0.092074	-0.14672	-0.062955	0.14838
443	4.1489	-0.11702	0.066686	0.097472	-0.088425	0.29075	0.20984	-0.10652	0.30157	0.18517	-0.046816	-0.15316	-0.008669	-0.046816	0.031938	-0.008669	0	0	0	-0.14207	-0.019654	0.043106	-0.16001	0.08745	0.092045	-0.14673	-0.063206	0.14813
444	4.1583	-0.11717	0.066729	0.097526	-0.09023	0.29028	0.21092	-0.10823	0.30115	0.1862	-0.046816	-0.15316	-0.008669	-0.046816	0.031938	-0.008669	0	0	0	-0.14182	-0.019649	0.042945	-0.16017	0.087301	0.092019	-0.14673	-0.063466	0.14787
445	4.1677	-0.11732	0.066772	0.097584	-0.09206	0.28978	0.21203	-0.10995	0.3007	0.18727	-0.046816	-0.15316	-0.008669	-0.046816	0.031938	-0.008669	0	0	0	-0.14157	-0.019644	0.042781	-0.16034	0.087146	0.091996	-0.14673	-0.063734	0.14759
446	4.1771	-0.11747	0.066816	0.097646	-0.093911	0.28925	0.21317	-0.1117	0.30022	0.18837	-0.046816	-0.15316	-0.008669	-0.046816	0.031938	-0.008669	0	0	0	-0.14132	-0.019638	0.042614	-0.16051	0.086985	0.091976	-0.14673	-0.064009	0.14732
447	4.1865	-0.11762	0.066859	0.097711	-0.095781	0.28868	0.21434	-0.11346	0.29971	0.1895	-0.046816	-0.15316	-0.008669	-0.046816	0.031938	-0.008669	0	0	0	-0.14105	-0.019632	0.042445	-0.16067	0.08682	0.091959	-0.14673	-0.064292	0.14703
448	4.1959	-0.11777	0.066903	0.09778	-0.097666	0.2881	0.21554	-0.11524	0.29918	0.19067	-0.046816	-0.15316	-0.008669	-0.046816	0.031938	-0.008669	0	0	0	-0.14078	-0.019626	0.042273	-0.16084	0.086649	0.091946	-0.14672	-0.064582	0.14674
449	4.2053	-0.11792	0.066947	0.097852	-0.099562	0.28748	0.21677	-0.11703	0.29863	0.19186	-0.046816	-0.15316	-0.008669	-0.046816	0.031938	-0.008669	0	0	0	-0.14051	-0.01962	0.042099	-0.161	0.086474	0.091936	-0.14671	-0.064878	0.14643
450	4.2146	-0.11807	0.066991	0.097927	-0.10147	0.28684	0.21802	-0.11883	0.29805	0.19308	-0.046816	-0.15316	-0.008669	-0.046816	0.031938	-0.008669	0	0	0	-0.14023	-0.019613	0.041923	-0.16117	0.086294	0.091929	-0.1467	-0.06518	0.14612
451	4.224	-0.11822	0.067036	0.098005	-0.10338	0.28618	0.21929	-0.12063	0.29746	0.19432	-0.046816	-0.15316	-0.008669	-0.046816	0.031938	-0.008669	0	0	0	-0.13994	-0.019605	0.041744	-0.16133	0.086109	0.091926	-0.14668	-0.065487	0.14581
